<?xml version="1.0" standalone="no"?>
<!DOCTYPE svg PUBLIC "-//W3C//DTD SVG 20010904//EN"
 "http://www.w3.org/TR/2001/REC-SVG-20010904/DTD/svg10.dtd">
<svg version="1.0" xmlns="http://www.w3.org/2000/svg"
 width="1024.000000pt" height="1024.000000pt" viewBox="0 0 1024.000000 1024.000000"
 preserveAspectRatio="xMidYMid meet">

<g transform="translate(0.000000,1024.000000) scale(0.100000,-0.100000)"
fill="#000000" stroke="none">
<path d="M1387 8858 c-199 -255 -348 -566 -406 -844 -32 -156 -41 -255 -41
-446 0 -351 62 -645 190 -904 l55 -112 -55 35 c-160 102 -381 277 -515 406
l-75 72 0 -133 c0 -604 243 -1204 646 -1592 86 -83 175 -156 240 -197 47 -30
-188 -5 -506 52 -101 19 -186 32 -188 30 -11 -10 118 -249 197 -366 252 -374
612 -659 989 -782 l102 -33 -106 -48 c-101 -45 -228 -86 -308 -102 l-37 -6 54
-49 c256 -228 566 -384 861 -435 69 -11 135 -15 221 -12 l123 4 -51 -74 c-28
-41 -82 -108 -121 -149 -40 -43 -65 -78 -60 -83 15 -14 152 -50 254 -65 52 -8
145 -15 207 -15 l111 0 -20 -67 c-23 -78 -41 -101 -288 -363 -86 -91 -177
-190 -204 -220 l-49 -55 433 -5 433 -5 -106 -69 c-59 -38 -107 -72 -107 -76 0
-8 86 -84 170 -151 125 -99 348 -223 424 -236 39 -6 108 27 241 116 l90 61 16
-48 c38 -112 103 -206 238 -346 58 -59 157 -146 218 -193 108 -81 400 -264
443 -278 24 -8 157 63 325 172 286 186 527 441 595 630 14 40 27 60 34 56 6
-4 56 -37 111 -73 136 -91 181 -113 214 -105 54 13 232 106 332 174 91 60 248
190 257 212 5 11 -130 153 -398 419 -135 135 -295 298 -354 362 l-107 117 -48
193 c-27 106 -52 211 -55 232 l-8 39 72 -64 c151 -135 229 -189 368 -259 338
-169 713 -213 1061 -124 52 13 98 27 102 31 5 5 -31 39 -78 78 -78 63 -178
170 -205 219 -10 18 -7 18 32 12 77 -12 296 -7 401 10 202 31 467 135 632 245
87 59 216 161 255 202 l33 34 -93 22 c-84 19 -259 84 -331 122 l-29 15 80 22
c236 63 537 247 747 457 166 165 299 350 407 564 37 74 66 136 64 138 -2 2
-89 -12 -195 -32 -220 -40 -432 -68 -486 -63 l-38 3 74 50 c86 58 257 220 339
320 183 224 334 527 411 823 58 226 95 528 83 677 l-6 60 -86 -85 c-107 -105
-266 -232 -422 -339 -65 -45 -121 -81 -124 -81 -3 0 14 40 39 88 82 166 139
363 176 617 20 132 17 491 -4 631 -31 204 -113 446 -214 634 -52 99 -196 318
-245 374 l-33 38 1 -58 c5 -248 -60 -564 -182 -878 -103 -266 -223 -485 -414
-756 l-85 -121 -8 108 c-4 59 -16 156 -26 214 -22 124 -72 310 -82 304 -3 -3
-9 -28 -13 -57 -4 -29 -23 -102 -43 -163 -170 -529 -552 -997 -1178 -1446
-113 -82 -325 -223 -349 -233 -6 -3 3 -15 19 -27 82 -62 196 -186 255 -278 36
-55 67 -100 70 -100 9 -1 79 114 108 179 33 73 58 166 68 255 l6 60 82 62
c223 169 441 370 591 545 102 119 274 362 308 435 l22 48 3 -98 c10 -347 -167
-707 -505 -1028 -91 -86 -268 -232 -329 -272 -19 -12 -34 -25 -34 -28 0 -8
128 17 236 46 102 28 242 83 443 174 74 33 137 59 139 56 8 -8 -84 -190 -129
-256 -96 -142 -248 -263 -445 -355 -93 -44 -254 -94 -304 -94 -38 -1 -6 -16
70 -33 114 -27 269 -40 377 -33 99 6 282 35 351 55 17 5 32 7 32 5 0 -15 -97
-129 -151 -178 -69 -62 -192 -127 -286 -151 -153 -38 -380 -37 -530 5 l-68 18
50 -44 c121 -108 311 -243 475 -337 l85 -49 -127 6 c-275 13 -391 56 -593 217
-45 35 -91 71 -104 79 l-23 15 27 130 c54 253 44 400 -36 562 -94 190 -270
323 -519 391 l-95 26 -995 6 -995 5 -95 33 c-150 52 -265 113 -410 217 -391
281 -662 550 -872 865 -140 210 -265 497 -307 705 -10 49 -20 84 -24 79 -11
-19 -66 -239 -81 -324 -8 -47 -18 -136 -22 -198 l-7 -114 -24 29 c-50 61 -255
374 -308 473 -146 268 -252 558 -310 846 -25 124 -51 401 -40 435 11 33 -2 21
-68 -63z m-60 -560 c-3 -8 -6 -5 -6 6 -1 11 2 17 5 13 3 -3 4 -12 1 -19z
m7584 -19 c-5 -13 -10 -19 -10 -12 -1 15 10 45 15 40 3 -2 0 -15 -5 -28z
m-7600 -26 c-12 -20 -14 -14 -5 12 4 9 9 14 11 11 3 -2 0 -13 -6 -23z m7629
-8 c0 -5 -5 -3 -10 5 -5 8 -10 20 -10 25 0 6 5 3 10 -5 5 -8 10 -19 10 -25z
m-43 -17 c-3 -8 -6 -5 -6 6 -1 11 2 17 5 13 3 -3 4 -12 1 -19z m-7540 -40 c-3
-8 -6 -5 -6 6 -1 11 2 17 5 13 3 -3 4 -12 1 -19z m30 -110 c-3 -8 -6 -5 -6 6
-1 11 2 17 5 13 3 -3 4 -12 1 -19z m7470 0 c-3 -8 -6 -5 -6 6 -1 11 2 17 5 13
3 -3 4 -12 1 -19z m-7650 -160 c-3 -8 -6 -5 -6 6 -1 11 2 17 5 13 3 -3 4 -12
1 -19z m253 -43 c0 -5 -5 -3 -10 5 -5 8 -10 20 -10 25 0 6 5 3 10 -5 5 -8 10
-19 10 -25z m-263 -7 c-3 -8 -6 -5 -6 6 -1 11 2 17 5 13 3 -3 4 -12 1 -19z
m7584 -15 c-12 -20 -14 -14 -5 12 4 9 9 14 11 11 3 -2 0 -13 -6 -23z m-7604
-95 c-3 -8 -6 -5 -6 6 -1 11 2 17 5 13 3 -3 4 -12 1 -19z m353 -53 c0 -5 -5
-3 -10 5 -5 8 -10 20 -10 25 0 6 5 3 10 -5 5 -8 10 -19 10 -25z m-33 -209
c136 -226 322 -479 528 -716 89 -102 92 -107 113 -192 39 -156 126 -334 232
-472 l49 -64 -77 30 c-86 33 -183 85 -179 97 1 4 -29 34 -68 68 -110 95 -250
248 -320 348 -15 22 -24 31 -20 20 4 -11 15 -42 25 -70 39 -110 141 -319 207
-422 40 -63 127 -179 147 -195 39 -32 5 -18 -57 23 -181 121 -277 203 -338
287 -298 410 -442 964 -367 1411 l10 63 40 -78 c21 -43 55 -105 75 -138z
m7389 -46 c15 -300 -55 -617 -202 -916 -58 -121 -187 -328 -236 -381 -23 -24
-211 -161 -303 -219 -64 -41 -64 -38 12 55 89 110 226 356 298 535 19 49 34
91 32 92 -2 2 -22 -22 -44 -54 -58 -82 -209 -239 -313 -326 -49 -41 -84 -76
-78 -78 11 -4 -85 -50 -179 -87 l-53 -21 59 80 c107 144 179 293 221 455 21
81 28 95 75 145 226 239 512 638 628 878 l52 106 12 -64 c7 -36 15 -126 19
-200z m191 238 c-3 -8 -6 -5 -6 6 -1 11 2 17 5 13 3 -3 4 -12 1 -19z m-7910
-30 c-3 -8 -6 -5 -6 6 -1 11 2 17 5 13 3 -3 4 -12 1 -19z m1272 -856 c175
-258 470 -558 762 -775 l107 -78 6 -60 c12 -99 45 -209 92 -300 36 -69 72
-117 176 -229 l131 -143 -62 -261 c-35 -143 -68 -277 -73 -296 -33 -117 -393
-237 -667 -222 l-74 4 71 38 c140 76 365 236 463 330 44 42 50 50 29 46 -159
-37 -376 -49 -499 -26 -147 26 -262 83 -363 178 -58 55 -138 150 -138 164 0 2
50 -6 111 -18 281 -57 488 -55 709 6 l45 13 -70 12 c-204 36 -456 167 -600
312 -77 76 -154 186 -200 286 -58 126 -59 124 33 78 128 -64 348 -156 457
-190 92 -29 277 -72 283 -67 1 2 -42 36 -95 78 -477 366 -731 753 -768 1171
-4 43 -4 100 0 127 l7 50 42 -83 c24 -46 62 -111 85 -145z m-1596 -256 c141
-118 442 -321 675 -455 183 -106 519 -283 600 -318 63 -26 64 -27 107 -113 44
-88 131 -211 204 -289 23 -24 41 -45 41 -46 0 -5 -200 34 -278 54 -45 12 -112
33 -149 46 -150 57 -434 214 -602 333 -35 25 -62 40 -60 34 8 -20 208 -238
310 -337 137 -132 244 -221 414 -343 77 -55 151 -110 165 -122 l25 -21 -40 6
c-72 11 -276 86 -384 140 -473 237 -838 661 -1006 1165 -35 107 -86 310 -78
310 3 0 28 -20 56 -44z m8601 -18 c-68 -299 -176 -551 -324 -758 -260 -364
-622 -637 -1008 -760 -72 -23 -138 -40 -148 -38 -11 2 25 33 102 88 177 127
275 208 417 341 117 111 357 368 357 383 0 4 -39 -20 -87 -52 -146 -97 -255
-159 -415 -237 -179 -86 -268 -117 -421 -145 -62 -12 -123 -23 -136 -26 -19
-4 -9 11 48 72 80 86 168 213 205 295 23 52 26 56 102 88 197 85 630 324 865
477 117 75 353 247 424 308 17 14 31 25 32 26 1 0 -5 -28 -13 -62z m-3488
-919 c124 -38 240 -107 299 -177 30 -35 95 -142 95 -155 0 -5 -17 6 -39 25
-164 141 -217 183 -296 238 -49 34 -105 68 -125 76 -57 21 -8 16 66 -7z
m-2095 -96 c13 -16 12 -17 -3 -4 -10 7 -18 15 -18 17 0 8 8 3 21 -13z m70 -70
c13 -16 12 -17 -3 -4 -10 7 -18 15 -18 17 0 8 8 3 21 -13z m139 -71 c0 -19
-144 -593 -410 -1637 -64 -251 -159 -620 -209 -813 l-29 -114 -81 -78 c-88
-85 -113 -97 -31 -15 27 28 50 55 50 62 0 14 156 651 436 1778 173 697 199
792 221 811 28 24 53 27 53 6z m1474 -476 c-15 -109 -69 -355 -85 -387 -23
-46 -95 -110 -155 -138 -97 -46 -146 -53 -440 -60 l-281 -6 13 30 12 30 284
11 c307 13 332 17 413 75 45 33 86 84 103 129 19 50 72 328 72 376 l0 48 35
-34 c31 -30 34 -38 29 -74z m-4243 35 c199 -35 460 -65 699 -81 91 -6 219 -15
285 -21 l119 -10 66 -50 c63 -48 193 -117 268 -143 l37 -13 -30 -6 c-151 -30
-575 -43 -790 -25 l-80 7 210 -104 c228 -113 475 -215 570 -236 l60 -13 -65
-12 c-93 -19 -327 -17 -440 2 -52 9 -128 27 -170 41 -291 94 -676 365 -866
609 -60 76 -76 102 -56 90 5 -3 87 -19 183 -35z m7829 19 c-6 -11 -31 -46 -57
-78 -154 -193 -408 -389 -668 -518 -217 -108 -369 -144 -602 -144 -124 0 -265
15 -293 31 -10 6 -6 7 12 3 63 -14 329 88 648 248 l195 98 -63 -5 c-268 -21
-736 -12 -812 17 -23 9 -20 11 47 37 92 36 173 82 244 137 l56 43 209 16 c505
37 862 79 1024 120 73 18 72 18 60 -5z m-6153 -816 l21 -6 -21 -25 c-131 -155
-196 -220 -271 -268 -26 -17 -27 -20 -10 -26 31 -12 351 -9 467 5 59 6 107 9
107 5 0 -16 -290 -152 -375 -175 -183 -51 -385 -41 -589 27 -90 30 -240 103
-286 139 -24 19 -24 20 -3 20 34 0 287 84 516 172 362 139 388 147 444 132z
m4673 -117 c279 -105 523 -187 556 -187 39 0 12 -23 -84 -73 -193 -100 -334
-137 -557 -144 -177 -6 -284 9 -444 63 -93 31 -386 163 -378 170 1 2 54 -6
117 -17 130 -23 603 -38 675 -22 l40 9 -40 21 c-41 22 -177 138 -229 196 -89
99 -86 95 -68 101 45 13 129 -10 412 -117z m-1300 -74 c0 -5 23 -23 50 -42 28
-19 50 -36 50 -38 0 -2 -21 8 -46 21 -45 24 -86 66 -65 66 6 0 11 -3 11 -7z
m-1409 -352 c28 -113 53 -212 55 -220 14 -59 196 -779 200 -793 4 -15 -1 -18
-25 -18 -36 0 -22 -46 -147 465 -190 780 -186 762 -167 785 23 27 21 34 84
-219z m1850 41 c35 -37 104 -114 154 -172 49 -58 118 -135 153 -171 l63 -67
-53 18 c-147 48 -261 134 -316 238 -33 63 -85 222 -72 222 4 0 36 -30 71 -68z
m-746 -916 c141 -134 161 -156 138 -156 -14 0 -24 3 -20 6 3 3 -51 51 -120
107 -69 56 -136 111 -149 122 -18 16 -23 29 -22 60 1 22 3 35 5 28 2 -6 78
-81 168 -167z m-1256 -601 c29 -49 87 -137 129 -195 l76 -105 0 -182 c1 -101
-2 -183 -6 -183 -16 0 -181 103 -255 159 -149 112 -229 203 -275 312 -19 46
-22 72 -22 169 0 139 11 179 70 267 25 37 55 86 66 108 l21 39 71 -149 c40
-83 96 -190 125 -240z m-837 157 c-9 -15 -44 -67 -77 -114 -53 -77 -64 -87
-90 -87 -37 -1 -133 21 -159 36 -17 9 -15 12 20 23 53 17 197 92 259 134 62
42 69 43 47 8z m2371 -6 c49 -37 184 -108 251 -132 l59 -21 -49 -16 c-27 -9
-74 -19 -104 -22 l-55 -6 -73 110 c-39 61 -70 111 -66 111 3 0 20 -11 37 -24z
m-851 -72 c-2 -15 -1 -16 6 -5 11 16 36 5 26 -11 -4 -7 -2 -8 4 -4 15 9 149
-91 201 -151 l40 -45 21 34 c11 18 23 49 26 68 10 63 14 57 9 -13 -16 -194
-162 -371 -459 -556 l-96 -60 0 94 0 95 59 122 c63 130 111 270 132 387 8 40
18 70 24 68 5 -2 9 -13 7 -23z"/>
<path d="M4961 3344 c0 -11 3 -14 6 -6 3 7 2 16 -1 19 -3 4 -6 -2 -5 -13z"/>
<path d="M4980 3250 c0 -6 7 -10 15 -10 8 0 15 2 15 4 0 2 -7 6 -15 10 -8 3
-15 1 -15 -4z"/>
<path d="M5011 3134 c0 -11 3 -14 6 -6 3 7 2 16 -1 19 -3 4 -6 -2 -5 -13z"/>
<path d="M5030 3120 c0 -5 5 -10 10 -10 6 0 10 5 10 10 0 6 -4 10 -10 10 -5 0
-10 -4 -10 -10z"/>
<path d="M5047 3063 c5 -12 3 -14 -7 -8 -10 6 -11 4 -4 -6 5 -8 7 -22 6 -31
-2 -13 1 -16 12 -12 13 5 16 -1 15 -27 0 -28 -2 -31 -9 -14 -12 29 -12 7 1
-40 10 -37 23 -54 41 -55 4 0 5 6 3 13 -2 6 -6 23 -9 37 -2 14 -10 45 -17 70
-17 59 -16 58 -18 75 0 8 -5 15 -11 15 -5 0 -6 -7 -3 -17z m41 -168 c-3 -3 -9
2 -12 12 -6 14 -5 15 5 6 7 -7 10 -15 7 -18z"/>
<path d="M5081 2844 c0 -11 3 -14 6 -6 3 7 2 16 -1 19 -3 4 -6 -2 -5 -13z"/>
<path d="M5097 2823 c-4 -3 -7 -11 -7 -17 0 -6 5 -4 10 4 6 10 10 11 10 3 0
-7 4 -13 10 -13 5 0 7 7 4 15 -7 16 -17 19 -27 8z"/>
<path d="M5112 2778 c-8 -11 8 -108 34 -195 2 -7 12 -13 23 -13 14 0 18 5 14
20 -4 16 -8 18 -20 9 -11 -10 -12 -8 -3 16 8 21 6 41 -6 86 -9 33 -21 59 -26
59 -6 0 -8 7 -4 15 7 18 2 19 -12 3z m38 -89 c0 -5 -4 -9 -8 -9 -5 0 -9 7 -9
15 0 8 4 12 9 9 4 -3 8 -9 8 -15z"/>
<path d="M6030 2706 c0 -2 8 -10 18 -17 15 -13 16 -12 3 4 -13 16 -21 21 -21
13z"/>
<path d="M4605 1820 c10 -11 20 -20 23 -20 3 0 -3 9 -13 20 -10 11 -20 20 -23
20 -3 0 3 -9 13 -20z"/>
<path d="M4972 1770 c0 -14 2 -19 5 -12 2 6 2 18 0 25 -3 6 -5 1 -5 -13z"/>
<path d="M4690 1735 c13 -14 26 -25 28 -25 3 0 -5 11 -18 25 -13 14 -26 25
-28 25 -3 0 5 -11 18 -25z"/>
<path d="M4750 1675 c13 -14 26 -25 28 -25 3 0 -5 11 -18 25 -13 14 -26 25
-28 25 -3 0 5 -11 18 -25z"/>
<path d="M5705 1940 c-4 -6 -11 -7 -17 -4 -7 4 -8 2 -4 -4 4 -6 2 -22 -4 -34
-11 -22 -11 -23 5 -3 20 25 37 55 31 55 -3 0 -8 -5 -11 -10z"/>
<path d="M5533 1730 c-57 -55 -99 -100 -95 -100 4 0 52 45 107 100 55 55 97
100 95 100 -3 0 -51 -45 -107 -100z"/>
<path d="M5366 1570 c-28 -27 -48 -52 -45 -55 3 -2 30 20 59 50 30 30 50 55
45 55 -6 0 -32 -23 -59 -50z"/>
<path d="M5261 1564 c0 -11 3 -14 6 -6 3 7 2 16 -1 19 -3 4 -6 -2 -5 -13z"/>
<path d="M6360 2986 c0 -2 8 -10 18 -17 15 -13 16 -12 3 4 -13 16 -21 21 -21
13z"/>
<path d="M6415 2930 c10 -11 20 -20 23 -20 3 0 -3 9 -13 20 -10 11 -20 20 -23
20 -3 0 3 -9 13 -20z"/>
<path d="M6765 2570 c21 -22 41 -40 44 -40 3 0 -13 18 -34 40 -21 22 -41 40
-44 40 -3 0 13 -18 34 -40z"/>
<path d="M6820 2516 c0 -2 8 -10 18 -17 15 -13 16 -12 3 4 -13 16 -21 21 -21
13z"/>
</g>
</svg>
